# generated from PmQm by Jehee Lee
:FULLY-SPECIFIED
:DEGREES
52
root -123.0894321 36.1949 -88.34360224 -147.6544045 65.01522418 -152.2784483
RightUpLeg -29.89660796 6.164614727 8.391083065
RightLeg 49.48094747 0 0
RightFoot -26.62702656 11.01925133 -9.491908106
RightToes 2.15368e-009 -1.59028e-015 9.93923e-017
Spine -0.246849 -3.68595 4.86115
Spine1 17.6299 -6.20406 8.95477
HEad -16.8996 13.5672 -2.62915
LeftShoulder1 9.93923e-017 0 1.22299e-017
LeftArm 4.32482 48.986 -86.7179
LeftForeArm -87.8968 -72.3264 106.792
LeftHand 1.11083 9.39422 -10.5687
RightShoulder 1.98785e-016 -4.96962e-017 1.55301e-017
RightArm 20.5286 -52.4671 71.3936
RightForeArm -58.2648 60.9043 -82.5557
RightHand 1.25374 -10.9898 -5.86276
LeftUpLeg -6.483648626 -4.137524796 14.03033798
LeftLeg 75.29038895 -3.904892283 7.871741391
LeftFoot 2.551703296 3.178211299 -7.16228584
LeftToes -1.72801e-010 9.79356e-011 1.69352e-011
53
root -121.1966085 37.07687443 -89.0354236 -149.8583507 66.87219945 -155.8420989
RightUpLeg -24.70320711 7.677741932 7.005603525
RightLeg 43.43249869 0 0
RightFoot -23.57278685 11.42039753 -7.533791391
RightToes 2.15368e-009 -1.59028e-015 9.93923e-017
Spine -1.886260285 -2.002841562 5.610276766
Spine1 17.36318599 -3.578991142 6.134232528
HEad -16.38710629 9.797215353 -0.8035182536
LeftShoulder1 9.93923e-017 0 1.22299e-017
LeftArm 10.26252384 54.46325415 -80.83302595
LeftForeArm -95.56109903 -72.07837764 112.878441
LeftHand 1.09014655 8.863747473 -9.734278341
RightShoulder 1.98785e-016 -4.96962e-017 1.55301e-017
RightArm 15.5340623 -51.7532731 77.12884863
RightForeArm -69.60513442 62.0383851 -94.15884536
RightHand 1.37326 -11.4978 -6.84114
LeftUpLeg -12.13800592 -4.153917811 11.80645923
LeftLeg 72.67906195 -4.607389969 5.604717691
LeftFoot 1.264428074 2.348454626 -6.677023331
LeftToes -1.72801e-010 9.79356e-011 1.69352e-011
54
root -119.2085542 38.23905956 -89.84833601 -151.7074531 69.02999075 -159.3174957
RightUpLeg -19.01274471 8.660474406 5.429440368
RightLeg 36.03552204 0 0
RightFoot -16.71422962 12.52309143 -4.331475683
RightToes 2.15368e-009 -1.59028e-015 9.93923e-017
Spine -3.471799646 0.03524485549 6.924648684
Spine1 16.82431062 -0.5141661394 2.506601384
HEad -16.45630439 5.611867958 0.4193475665
LeftShoulder1 9.93923e-017 0 1.22299e-017
LeftArm 16.52232988 59.63982935 -73.44134309
LeftForeArm -105.3608249 -71.52671488 119.9037818
LeftHand 1.102746018 8.885640624 -8.948700094
RightShoulder 1.98785e-016 -4.96962e-017 1.55301e-017
RightArm 12.59204211 -50.52568636 81.49351075
RightForeArm -80.31401834 62.06477145 -105.9854503
RightHand 1.46618 -11.8622 -7.58906
LeftUpLeg -17.23001442 -4.40425858 9.402337768
LeftLeg 64.68726836 -4.485616709 3.378782171
LeftFoot -0.7963349119 1.437068119 -7.109027622
LeftToes -1.72801e-010 9.79356e-011 1.69352e-011
55
root -117.1553758 39.42615549 -90.73586209 -153.3810249 71.10731799 -162.9811772
RightUpLeg -14.11759979 5.835368096 3.399284547
RightLeg 28.74230709 0 0
RightFoot -5.699305131 15.95721097 -1.144927669
RightToes 2.15368e-009 -1.59028e-015 9.93923e-017
Spine -5.384057125 2.011411896 7.786159608
Spine1 16.12745795 2.161208358 -0.6192420338
HEad -15.79613098 2.003734096 0.8612595439
LeftShoulder1 9.93923e-017 0 1.22299e-017
LeftArm 22.34844708 64.18356506 -65.72964552
LeftForeArm -111.25825 -71.27348458 123.1763412
LeftHand 1.135168873 9.592671842 -9.784890369
RightShoulder 1.98785e-016 -4.96962e-017 1.55301e-017
RightArm 11.82215498 -49.03066611 83.94557826
RightForeArm -87.18132325 61.28267873 -115.2100109
RightHand 1.41825 -11.6862 -7.16774
LeftUpLeg -21.46476004 -4.864288884 7.387678003
LeftLeg 52.72192157 -2.863772886 2.761923791
LeftFoot -2.783641487 0.4642598028 -7.055364104
LeftToes -1.72801e-010 9.79356e-011 1.69352e-011
56
root -115.0896872 40.41877459 -91.61336102 -156.7669167 72.62036898 -168.1902817
RightUpLeg -10.16952539 1.432005065 0.9560517716
RightLeg 23.05096636 0 0
RightFoot 5.839917494 19.51495695 0.1889619476
RightToes 2.15368e-009 -1.59028e-015 9.93923e-017
Spine -7.325097327 3.463550729 7.079136628
Spine1 15.46772959 3.925171374 -2.423814425
HEad -14.45737943 -0.9110293882 1.023787619
LeftShoulder1 9.93923e-017 0 1.22299e-017
LeftArm 28.11817892 68.0179371 -57.91577182
LeftForeArm -114.7078318 -71.11143865 125.3582899
LeftHand 1.139001705 10.3757006 -11.40578843
RightShoulder 1.98785e-016 -4.96962e-017 1.55301e-017
RightArm 12.20038375 -48.14639967 85.10781735
RightForeArm -93.12935627 60.03463207 -123.3396495
RightHand 1.27865 -11.1657 -5.84197
LeftUpLeg -24.24382395 -5.758353455 5.67517559
LeftLeg 38.59782671 -0.3286555077 1.661846832
LeftFoot -4.069321154 -0.4971411328 -5.802955772
LeftToes -1.72801e-010 9.79356e-011 1.69352e-011
